<svg width="11" height="18" viewBox="0 0 11 18" fill="none" xmlns="http://www.w3.org/2000/svg">
<path d="M10.1398 2.10728C10.1398 2.25237 10.084 2.38072 9.97238 2.49232L3.39314 9.07155L9.97238 15.6508C10.084 15.7624 10.1398 15.8907 10.1398 16.0358C10.1398 16.1809 10.084 16.3093 9.97238 16.4209L9.13532 17.2579C9.02372 17.3695 8.89537 17.4253 8.75028 17.4253C8.60519 17.4253 8.47684 17.3695 8.36523 17.2579L0.563895 9.4566C0.452288 9.34499 0.396484 9.21664 0.396484 9.07155C0.396484 8.92646 0.452288 8.79812 0.563895 8.68651L8.36523 0.885184C8.47684 0.773577 8.60519 0.717773 8.75028 0.717773C8.89537 0.717773 9.02372 0.773577 9.13532 0.885184L9.97238 1.72224C10.084 1.83384 10.1398 1.96219 10.1398 2.10728Z" fill="white"/>
</svg>
