<svg width="50" height="56" viewBox="0 0 50 56" fill="none" xmlns="http://www.w3.org/2000/svg">
<mask id="mask0_11247_827" style="mask-type:alpha" maskUnits="userSpaceOnUse" x="12" y="10" width="27" height="46">
<path d="M38.4107 55.1921H12.0332V10.207H38.4107V55.1921Z" fill="white"/>
</mask>
<g mask="url(#mask0_11247_827)">
<path fill-rule="evenodd" clip-rule="evenodd" d="M28.0282 10.4604C20.3685 9.00296 13.1948 13.8958 12.1343 23.5384C10.8736 35.0017 21.8315 39.3053 21.4978 42.3396C21.1641 45.3739 18.2857 44.6947 18.0847 46.8093C17.9499 48.2275 29.6018 41.9352 29.4239 43.5536C29.2459 45.1719 19.6137 48.411 19.3542 50.7711C19.1687 52.4567 29.5843 47.8497 29.4434 49.1308C29.3322 50.1422 22.5524 52.0787 22.3818 53.6296C22.2854 54.5061 23.5213 55.0517 24.667 55.178C25.8126 55.3041 27.2568 54.5758 27.9145 53.5562C27.9145 53.5562 28.493 52.3842 26.8518 52.4295C26.6797 52.4342 26.6033 52.3052 26.8025 52.2062C28.6631 51.2811 31.9322 49.8951 32.0795 48.5552C32.391 45.723 22.4008 50.3557 22.5046 49.4117C22.6085 48.4678 33.6098 44.5288 32.5701 42.4196C31.4951 40.2391 26.1569 43.0118 23.8197 43.6293C23.2559 43.7782 23.0096 43.4709 23.1169 42.8765C23.211 42.3552 23.396 41.7082 22.8927 40.6357C21.1633 36.9507 12.977 33.607 14.0375 23.9644C15.098 14.3217 22.5634 12.2028 27.3671 13.0705C31.968 13.9018 33.5377 18.3881 34.4177 20.1976C35.2976 22.007 38.6565 21.6009 38.3964 19.1371C38.1363 16.6732 34.8013 11.749 28.0282 10.4604Z" fill="#C7942B"/>
</g>
<path fill-rule="evenodd" clip-rule="evenodd" d="M29.4173 29.6332C29.2322 29.692 29.0399 29.7487 28.8429 29.8016C28.9054 28.8794 28.9823 28.1574 29.075 27.8064C29.3604 26.7267 30.9669 25.7999 31.4653 26.5001C32.3937 27.8042 30.6758 29.2334 29.4173 29.6332ZM21.3337 27.6248C21.3337 25.96 22.3719 25.9779 22.6413 25.9779C23.8195 25.9779 24.5587 28.0275 24.9366 29.9142C22.8736 29.4854 21.3337 28.4196 21.3337 27.6248ZM30.5506 24.438C27.6371 24.7912 27.5776 27.9924 27.6582 30.0418C27.3673 30.0803 27.0716 30.1045 26.7731 30.1045C26.6523 30.1045 26.5325 30.1011 26.4132 30.0962C25.9701 26.7424 24.5931 24.421 22.4448 24.421C20.637 24.421 19.5098 25.8604 19.5098 27.1138C19.5098 29.5311 22.1537 30.3359 25.049 30.531C25.1824 31.3455 25.2458 32.079 25.2451 32.5335C25.2414 34.7775 25.0302 38.0943 24.5571 40.5663C24.3504 41.6467 26.0703 42.4972 26.1047 40.7991C26.1519 38.4735 26.569 34.9132 26.569 32.5872C26.569 31.8907 26.535 31.2201 26.4697 30.5819C26.5479 30.5826 26.6263 30.5833 26.7043 30.5833C27.0453 30.5833 27.3693 30.5708 27.6805 30.5495C27.6937 30.8336 27.7045 31.0811 27.7027 31.2767C27.6766 33.966 27.383 37.9146 27.1107 39.3067C26.802 40.8852 28.791 41.1873 28.6489 39.5701C28.5841 38.8322 28.6177 33.7293 28.8045 30.4206C31.6297 29.9542 32.9396 28.5797 33.083 27.6147C33.4341 25.2517 31.8838 24.2764 30.5506 24.438Z" fill="#C7942B"/>
<mask id="mask1_11247_827" style="mask-type:alpha" maskUnits="userSpaceOnUse" x="42" y="31" width="8" height="4">
<path d="M49.9821 31.9512V34.2321H42.8555V31.9512H49.9821Z" fill="white"/>
</mask>
<g mask="url(#mask1_11247_827)">
<path fill-rule="evenodd" clip-rule="evenodd" d="M42.8658 32.5608C42.5405 33.4419 50.0303 34.7335 49.9819 34.0304C49.9429 33.4624 43.5299 30.7616 42.8658 32.5608Z" fill="#C7942B"/>
</g>
<path fill-rule="evenodd" clip-rule="evenodd" d="M45.2671 8.87002C44.8286 8.50723 38.4553 11.3008 39.302 13.0216C39.7166 13.8642 45.8099 9.31919 45.2671 8.87002Z" fill="#C7942B"/>
<path fill-rule="evenodd" clip-rule="evenodd" d="M49.4146 22.2411C49.1668 21.7287 42.2098 21.6156 42.264 23.5329C42.2907 24.4718 49.7215 22.8756 49.4146 22.2411Z" fill="#C7942B"/>
<mask id="mask2_11247_827" style="mask-type:alpha" maskUnits="userSpaceOnUse" x="24" y="0" width="3" height="8">
<path d="M24.4102 0.391113H26.0322V7.66378H24.4102V0.391113Z" fill="white"/>
</mask>
<g mask="url(#mask2_11247_827)">
<path fill-rule="evenodd" clip-rule="evenodd" d="M25.3165 7.66111C26.2398 7.82999 26.2216 0.225165 25.5376 0.39388C24.9853 0.530136 23.4308 7.31641 25.3165 7.66111Z" fill="#C7942B"/>
</g>
<path fill-rule="evenodd" clip-rule="evenodd" d="M10.7325 13.3544C11.4465 12.7446 5.54149 7.95672 5.24042 8.59388C4.9973 9.10848 9.27461 14.5998 10.7325 13.3544Z" fill="#C7942B"/>
<path fill-rule="evenodd" clip-rule="evenodd" d="M8.00657 27.0709C8.24158 26.1615 0.659953 25.6309 0.778725 26.3255C0.874688 26.8866 7.52675 28.9277 8.00657 27.0709Z" fill="#C7942B"/>
<path fill-rule="evenodd" clip-rule="evenodd" d="M5.93487 40.2425C6.36535 40.6146 12.7971 37.9586 11.9877 36.2201C11.5913 35.3687 5.40183 39.7818 5.93487 40.2425Z" fill="#C7942B"/>
</svg>
