<svg width="68" height="46" viewBox="0 0 68 46" fill="none" xmlns="http://www.w3.org/2000/svg">
<path fill-rule="evenodd" clip-rule="evenodd" d="M17.3022 22.3643C17.809 23.7435 18.4028 25.0863 19.2012 26.3368C20.6057 28.5368 24.7365 31.43 28.0476 30.5499C28.3945 30.4576 28.4404 30.6774 28.1064 30.8785C24.1374 33.2643 18.5392 31.3083 15.7272 27.8507C14.218 25.9947 13.6095 23.6524 11.5095 22.2249C13.6183 21.657 15.7495 20.9762 17.3022 22.3643ZM14.1216 10.8928C18.3034 10.5177 21.9744 11.1039 25.1921 13.6448C25.7142 14.057 26.248 14.4815 26.007 15.6961C25.7812 16.8325 25.8876 18.1748 25.7453 19.3288C25.3326 22.6888 25.9682 25.8818 27.7119 28.4963C25.77 29.9143 22.0979 28.8343 20.7651 27.1523C19.1218 25.0781 18.3564 22.4648 17.588 19.9726C16.5379 16.568 16.6796 13.3856 14.1216 10.8928ZM31.3082 5.01244C32.7886 10.4166 37.4408 14.4756 37.4408 20.2954C37.4408 23.5489 35.3731 28.9701 31.8832 30.3112C28.0523 27.6056 26.8189 23.5542 26.8189 19.2771C26.8189 12.8635 30.628 9.42183 31.3082 5.01244ZM37.9182 15.5432C37.8106 15.1311 37.9758 14.8277 38.238 14.5649C41.6215 11.1721 46.0344 10.4707 50.6708 10.8863C48.1127 13.3791 47.9058 16.568 46.8563 19.9726C46.0879 22.4648 45.3219 25.0781 43.6786 27.1523C42.2018 29.016 37.8612 30.1301 36.1762 27.9366C36.9664 26.6043 37.5296 25.1281 37.8959 23.78C38.6478 21.0109 38.6196 18.2312 37.9182 15.5432ZM53.8191 22.0274C51.719 23.4543 50.2257 25.9947 48.7165 27.8507C45.8228 31.4088 39.9777 33.3777 35.9945 30.6592C35.6042 30.3929 35.7552 30.2171 36.2027 30.3794C39.4174 31.5464 43.7968 28.6015 45.2425 26.3368C46.0409 25.0863 46.6347 23.7435 47.1415 22.3643C48.6942 20.9762 51.7108 21.4589 53.8191 22.0274ZM9.36473 22.3507C9.10016 22.292 7.91257 21.2078 8.37761 21.0585C11.1326 20.1719 14.499 19.781 16.9648 21.4089C16.6837 20.5758 16.4227 19.7345 16.1634 18.8944C15.2704 15.9965 14.3991 12.2474 11.7411 10.4419C11.6223 10.3613 10.5429 9.30483 11.1191 9.23193C16.6367 8.53172 22.3877 9.8075 26.4161 13.8436C26.4197 13.8471 26.4209 13.85 26.4244 13.8536C27.8442 10.0239 30.7356 3.27396 31.2283 0.811762C31.4229 -0.161831 31.6698 0.461363 31.7345 0.864087C32.5217 5.74263 35.3008 9.13963 37.1633 13.3903C37.2938 13.6878 37.5167 14.2492 37.8935 13.8724C41.9255 9.84043 47.8076 8.53172 53.3246 9.23193C53.9008 9.30483 52.8214 10.3613 52.7026 10.4419C50.0446 12.2474 49.1733 15.9965 48.2803 18.8944C48.021 19.7345 47.7606 20.5758 47.4789 21.4089C49.9453 19.781 53.327 20.1237 56.0667 21.0585C56.7069 21.2766 56.9362 21.9474 56.9274 22.0115C56.918 22.0762 55.5005 22.2579 55.0796 22.3507C52.4768 22.9234 51.0394 26.0017 49.4302 27.9013C48.2168 29.3323 46.8804 30.7556 45.2407 31.7057C41.8155 33.6917 36.5266 33.9222 33.5758 30.8932C33.0449 31.2742 32.4641 31.5787 31.8315 31.7886C31.5957 31.9638 31.3147 32.0332 31.0848 31.8762C30.8373 31.7081 30.601 31.5323 30.3711 31.3524C27.3515 33.8898 22.4436 33.5847 19.203 31.7057C17.5638 30.7556 16.2269 29.3323 15.014 27.9013C13.4043 26.0017 11.9657 22.9287 9.36473 22.3507ZM67.444 35.2561C67.6691 34.8651 67.9531 35.3208 67.7973 35.7011C67.6415 36.0815 62.663 42.1806 55.7091 43.2459C47.9744 44.4305 38.1874 35.3343 31.702 35.3343C23.3606 35.3343 17.6337 41.8431 7.69374 41.8431C4.16917 41.8431 1.10258 39.3645 0.812736 39.1546C0.522892 38.9453 0.9556 38.8318 1.16549 38.9582C1.37479 39.0852 4.54896 41.0441 7.43917 41.0441C15.2638 41.0441 23.7933 33.995 31.8431 33.995C38.6107 33.995 47.6705 42.4457 55.4046 41.2611C62.7077 40.1423 67.2188 35.647 67.444 35.2561ZM31.0979 38.0396C35.9123 38.0396 40.1642 41.088 44.0156 44.0323C44.2802 44.2028 43.9433 44.5967 43.7029 44.4809C39.715 42.1374 35.6366 40.125 30.9391 40.125C23.1145 40.125 13.6114 46.1323 6.85619 45.7214C-0.420484 45.2787 -5.01566 41.3937 -5.81641 40.389C-5.77525 40.3437 -5.73645 40.2961 -5.70411 40.2443C-4.69348 40.804 -0.493973 43.9324 6.79681 44.3762C13.2704 44.7695 23.2733 38.0396 31.0979 38.0396Z" fill="#C7942B"/>
</svg>
