<svg width="47" height="36" viewBox="0 0 47 36" fill="none" xmlns="http://www.w3.org/2000/svg">
<path fill-rule="evenodd" clip-rule="evenodd" d="M36.2947 0.130859C28.0083 0.130859 19.7595 7.20308 16.8449 14.4058C16.805 14.4577 16.8137 14.4992 16.8711 14.5305C17.8838 15.3169 19.4942 15.2251 20.6633 14.9862C24.6242 14.176 27.0348 11.19 29.3729 8.12365C30.3583 6.83082 28.2625 5.65824 27.4137 7.11446C25.9615 9.60479 22.7469 14.3105 20.6067 14.4909C19.8529 14.5542 18.7836 14.2808 18.9273 13.9252C19.0584 13.602 19.2001 13.2808 19.3525 12.9615C21.1748 9.14629 24.3241 5.41851 27.8112 3.25336C31.7238 0.823958 35.1759 0.953321 37.2247 1.31174C40.083 1.81178 44.2114 4.6989 44.3575 10.2868C44.4588 14.1697 42.2763 18.3564 39.9318 20.3522C39.5319 20.6924 40.0771 21.1287 40.7703 20.7335C43.8139 18.9964 46.7708 13.9936 46.7708 9.31323C46.7708 5.31249 42.722 0.130859 36.2947 0.130859Z" fill="#C7942B"/>
<path fill-rule="evenodd" clip-rule="evenodd" d="M9.22975 23.304C8.61256 22.8688 2.36934 19.5181 1.22006 12.8106C0.266752 7.24721 4.42243 2.54862 10.6854 2.54862C13.5731 2.54862 16.4746 4.24972 18.8824 6.49952C20.312 7.83508 22.3413 5.37996 21.1845 4.03609C18.7126 1.16479 15.3182 0.153232 11.8391 0.0108143C4.09147 -0.30646 -1.01673 6.40892 0.171342 13.3874C1.15118 19.1438 8.03534 23.5176 9.0516 23.9049C9.54726 24.094 9.84695 23.7392 9.22975 23.304Z" fill="#C7942B"/>
<path fill-rule="evenodd" clip-rule="evenodd" d="M31.2259 9.84537C29.8252 8.58458 27.7911 10.5215 29.2912 11.6442C29.2912 11.6442 41.2515 19.5768 37.479 24.4115C37.3812 24.5369 37.4335 25.3523 38.2973 24.4313C39.5317 23.1155 39.2768 20.8404 38.6422 19.4811C36.7755 15.4831 34.4461 12.7444 31.2259 9.84537Z" fill="#C7942B"/>
<path fill-rule="evenodd" clip-rule="evenodd" d="M27.1909 14.0927C26.0095 13.1582 24.8995 14.6481 26.5111 15.6039C26.5111 15.6039 39.2019 23.4606 34.6919 27.6164C34.5747 27.7244 34.4935 28.5373 35.4959 27.7691C36.9282 26.6717 36.3724 24.1643 35.5957 22.8806C33.3118 19.105 30.5896 16.7808 27.1909 14.0927Z" fill="#C7942B"/>
<path fill-rule="evenodd" clip-rule="evenodd" d="M24.2866 16.9325C23.1052 15.9981 21.9952 17.4879 23.6068 18.4437C23.6068 18.4437 36.2976 26.3004 31.7876 30.4562C31.6704 30.5642 31.5892 31.3772 32.5916 30.6089C34.024 29.5115 33.4681 27.0042 32.6914 25.7205C30.4075 21.9448 27.6853 19.6206 24.2866 16.9325Z" fill="#C7942B"/>
<path fill-rule="evenodd" clip-rule="evenodd" d="M20.7617 27.5842C25.0754 23.6733 26.4535 25.1319 26.5532 25.0318C26.7607 24.8225 26.379 23.3014 23.3228 24.2695C21.2748 24.9178 17.3404 28.0419 16.5835 30.6616C16.5645 30.6541 16.5514 30.647 16.5288 30.6387C13.5874 29.5678 14.9267 26.6727 17.2343 24.5804C21.548 20.6695 22.9261 22.1284 23.0258 22.028C23.2333 21.8191 22.852 20.2976 19.7954 21.2656C17.8171 21.8923 14.0799 24.8284 13.1455 27.3888C10.3842 26.2787 11.7144 23.4434 13.9852 21.3847C18.2989 17.4738 19.677 18.9324 19.7767 18.8319C19.9842 18.623 19.6029 17.1019 16.5463 18.0699C13.4615 19.0467 6.08718 25.6418 11.7591 27.6681C11.9488 27.7357 12.5893 27.7591 13.0398 27.7211C12.6883 29.0226 13.1317 30.1936 15.0082 30.8638C15.2347 30.9449 16.1041 30.9627 16.5245 30.8887C16.2533 32.1242 16.7379 33.2255 18.5352 33.8676C18.9022 33.9986 20.9585 33.9649 20.0558 33.6425C17.1148 32.5716 18.4541 29.6766 20.7617 27.5842Z" fill="#C7942B"/>
<mask id="mask0_11247_853" style="mask-type:alpha" maskUnits="userSpaceOnUse" x="20" y="26" width="11" height="10">
<path d="M30.5185 35.885H20.4004V26.2378H30.5185V35.885Z" fill="white"/>
</mask>
<g mask="url(#mask0_11247_853)">
<path fill-rule="evenodd" clip-rule="evenodd" d="M27.2413 26.5572C24.4863 27.4299 18.3939 32.6966 21.0606 35.3614C22.2024 36.5023 25.9681 35.8258 27.9084 32.8703C28.17 32.4723 27.7741 32.4557 27.2627 33.0491C26.7512 33.6425 24.0528 35.9267 22.8781 35.2874C21.1849 34.3657 22.7416 31.6297 24.6802 29.872C28.9939 25.9611 30.372 27.42 30.4718 27.3196C30.6792 27.1103 30.2976 25.5892 27.2413 26.5572Z" fill="#C7942B"/>
</g>
</svg>
