<svg width="52" height="40" viewBox="0 0 52 40" fill="none" xmlns="http://www.w3.org/2000/svg">
<path fill-rule="evenodd" clip-rule="evenodd" d="M20.462 20.5812C20.4745 20.5705 20.3834 20.4777 20.462 20.5812V20.5812Z" fill="#231F20"/>
<path fill-rule="evenodd" clip-rule="evenodd" d="M25.8073 21.4861C25.9068 21.4359 25.7975 21.1683 25.8073 21.4861V21.4861Z" fill="#231F20"/>
<path fill-rule="evenodd" clip-rule="evenodd" d="M40.8521 15.0636C36.3912 22.1956 32.1916 21.9858 31.8996 22.0516C29.9214 22.4978 34.6294 15.4271 35.5823 14.3191C36.5983 13.1373 39.0174 10.2329 39.4414 9.66934C39.865 9.10578 40.189 8.60756 39.9499 8.65156C39.3934 8.75378 39.0792 9.28578 38.5708 9.74712C37.9721 10.2902 35.8183 12.1924 34.1645 14.248C33.2454 15.3902 29.8645 21.2329 29.3623 21.4858C29.2601 18.1804 29.6027 14.6147 31.6365 12.0462C37.5556 4.57112 44.2219 3.70756 44.4894 4.064C44.7939 4.46978 44.4428 9.32267 40.8521 15.0636ZM24.0178 20.5809C22.2894 18.3062 20.4374 16.0449 18.3596 14.0698C17.3445 13.1049 12.4818 9.43467 12.052 9.82C11.4156 10.3911 13.7089 11.7276 14.0667 12.0222C14.7814 12.6107 17.3063 14.5413 17.8676 15.0129C18.8925 15.8738 19.9867 17.1804 20.8632 18.3364C21.1876 18.7644 22.8885 20.9382 22.7098 21.4476C22.6205 21.7027 18.0423 21.4747 14.6285 18.416C9.26627 13.612 7.08582 7.74445 7.15115 7.55067C7.20137 7.40223 12.9183 5.27156 19.0156 9.64178C23.9361 13.168 24.4498 20.2098 24.0178 20.5809ZM50.9983 0.67956C50.8166 0.497782 46.3903 2.26756 44.6601 2.66578C44.0525 2.80578 28.5841 6.63778 28.5841 19.6378C28.5841 20.5969 28.6943 21.5373 28.6694 22.5067C28.6521 23.1884 27.5756 27.6573 27.137 27.9973C26.8818 28.1951 26.8027 26.7689 26.7796 26.688C26.5556 25.892 26.3841 24.8667 26.0018 24.1391C25.709 23.5813 25.5085 22.8458 25.1725 22.3458C24.4174 21.224 24.7747 19.7787 24.6703 18.4547C23.649 5.54134 7.83693 5.06089 7.16182 5.05378C5.72048 5.03867 4.21603 4.76312 2.7867 4.56223C2.13025 4.46978 1.05692 3.94223 0.70714 4.33867C0.268029 4.836 3.42226 5.56489 6.49737 9.788C7.19871 10.7507 8.9076 16.3636 13.4245 20.5178C15.9094 22.8031 22.1605 23.9076 23.4298 23.5964C24.9338 23.2271 26.1463 27.3991 26.2423 29.328C26.2863 30.2062 24.689 35.3093 24.8783 38.8724C24.9232 39.7231 27.3458 39.0636 27.3458 39.0636C27.3458 30.8969 29.8943 25.456 30.2019 24.3293C30.1263 23.5787 30.8521 23.876 31.2943 23.876C36.7236 23.876 41.4872 20.1213 44.5445 11.8991C45.3165 9.82312 46.057 5.97112 48.3917 3.89689C48.7992 3.53467 51.7846 1.46578 50.9983 0.67956Z" fill="#C7942B"/>
</svg>
