<svg width="48" height="35" viewBox="0 0 48 35" fill="none" xmlns="http://www.w3.org/2000/svg">
<mask id="mask0_11247_678" style="mask-type:alpha" maskUnits="userSpaceOnUse" x="0" y="0" width="48" height="35">
<path d="M0.222656 0.88916H47.6941V34.5983H0.222656V0.88916Z" fill="white"/>
</mask>
<g mask="url(#mask0_11247_678)">
<path fill-rule="evenodd" clip-rule="evenodd" d="M36.7353 2.33402C37.114 1.60513 37.7491 1.77446 38.0269 2.16246C37.5913 2.27979 37.1242 2.40913 36.6349 2.5469C36.6824 2.4429 36.7167 2.37046 36.7353 2.33402ZM8.8015 10.1065C9.14684 9.44157 9.70639 9.52335 10.0126 9.83713C9.58639 9.94735 9.17084 10.0558 8.77439 10.1616C8.7855 10.1385 8.79484 10.1198 8.8015 10.1065ZM46.6251 20.714C45.482 21.3625 43.0931 23.0687 38.4953 23.6696C32.1678 24.4962 28.6269 21.2122 28.6269 21.2122C28.6269 21.2122 34.3255 7.82068 36.1784 3.57935C37.002 3.32513 37.7367 3.09135 38.3789 2.87757C39.5158 5.24779 44.0242 14.4065 46.8038 18.6776C46.966 18.9269 47.2713 18.9269 47.0416 18.4936C44.7655 14.198 40.5895 5.71624 39.0815 2.63935C40.5442 2.12957 41.346 1.76024 41.3167 1.5469C41.294 1.38068 40.2847 1.57668 38.7544 1.97135C38.6251 1.7069 38.5424 1.53757 38.5224 1.49579C38.2598 0.952682 36.9011 0.24646 36.1371 2.02602C36.0855 2.14557 35.9758 2.40602 35.8189 2.77935C31.5744 3.99846 26.0611 5.73179 23.814 6.37979C21.514 7.0429 15.5211 8.43179 10.7713 9.64246C10.6699 9.4349 10.6064 9.30468 10.5886 9.26824C10.3259 8.72513 8.96728 8.0189 8.20328 9.79802C8.16017 9.8989 8.07572 10.0989 7.95617 10.3825C5.80772 10.9705 4.32061 11.4513 4.26905 11.6833C4.21127 11.9429 5.46683 11.8011 7.53439 11.3878C5.59617 16.0118 0.309492 28.6865 0.309492 28.6865C-0.430065 30.7033 3.60638 34.9176 10.4295 34.5789C16.8691 34.2598 19.5855 29.2256 19.5855 29.2256C19.9015 28.8309 19.89 27.8065 18.6917 28.4865C17.5486 29.1349 15.1597 30.8411 10.5615 31.4416C4.23394 32.2687 0.693048 28.9847 0.693048 28.9847C0.693048 28.9847 6.50461 15.3282 8.29795 11.23C8.96595 11.0887 9.70106 10.9247 10.4891 10.7416C11.6953 13.2491 16.1255 22.2327 18.8704 26.45C19.0326 26.6989 19.3375 26.6993 19.1082 26.266C16.8704 22.0433 12.7953 13.7718 11.2251 10.5687C15.1108 9.64646 20.1037 8.31579 24.814 6.93535C28.9691 5.71713 32.5931 4.67135 35.3806 3.82335C33.3762 8.60735 28.2429 20.914 28.2429 20.914C27.5033 22.9313 31.5398 27.1451 38.3633 26.8069C44.8029 26.4873 47.5189 21.4531 47.5189 21.4531C47.8353 21.0585 47.8238 20.034 46.6251 20.714Z" fill="#C7942B"/>
</g>
<path fill-rule="evenodd" clip-rule="evenodd" d="M23.2036 8.28516C22.8702 8.28516 21.5645 10.7016 21.5645 11.0905C21.5645 11.4794 24.7871 11.3963 24.7871 11.0905C24.7871 10.7852 23.4258 8.28516 23.2036 8.28516Z" fill="#C7942B"/>
</svg>
