<svg width="77" height="20" viewBox="0 0 77 20" fill="none" xmlns="http://www.w3.org/2000/svg">
<mask id="mask0_11247_734" style="mask-type:alpha" maskUnits="userSpaceOnUse" x="-11" y="0" width="88" height="20">
<path d="M-11 19.0222V0.888672L76.4524 0.888672V19.0222H-11Z" fill="white"/>
</mask>
<g mask="url(#mask0_11247_734)">
<path fill-rule="evenodd" clip-rule="evenodd" d="M33 17.9517C26.9551 17.9517 18.2166 14.4976 18.2166 7.31321C18.2166 4.99927 19.4258 1.85581 22.8798 1.85581C25.7464 1.85581 27.6398 4.22501 27.3353 4.37754C26.5063 4.79203 21.6706 6.00067 21.6706 8.833C21.6706 11.4581 26.2991 14.8088 31.2381 14.8088C32.7927 14.8088 35.2448 13.7726 35.556 13.7726C35.7848 13.7726 39.1388 13.9406 42.1745 14.0019C41.7711 14.4778 38.6315 17.9517 33 17.9517ZM36.8337 2.65052C39.839 2.65052 42.1607 3.55133 41.8081 8.14219C41.8026 8.2074 41.8551 8.27261 41.9413 8.33396C41.2427 8.31019 40.7929 8.2809 40.7371 8.24609C40.4607 8.07311 40.4265 6.20792 38.1468 6.20792C34.0704 6.20792 29.8913 9.9383 25.4701 9.9383C23.7779 9.9383 23.3977 8.00402 23.3977 7.48619C23.3977 6.96781 25.5044 6.6224 26.8517 6.13884C28.1985 5.65527 33.8289 2.65052 36.8337 2.65052ZM34.7038 8.06813C34.7038 8.06813 35.7422 7.26679 36.8403 7.32592C37.939 7.38561 38.1761 8.09797 38.1468 8.21624C38.1169 8.33506 35.063 8.23116 34.7038 8.06813ZM32.3782 13.5305C28.7904 14.2479 25.5392 11.3199 25.7464 11.1818C25.9537 11.0436 28.959 10.3528 28.959 10.3528C29.6498 11.5962 32.7236 13.4614 32.3782 13.5305ZM68.3353 12.1489C64.7082 12.3561 52.8611 12.4252 48.6466 12.5634C44.4326 12.7015 37.3173 12.7015 35.6941 12.3904C34.0704 12.0798 30.8236 9.86921 30.7894 9.66197C30.7551 9.45473 31.9295 9.00598 32.2058 9.10932C32.4821 9.21267 35.2448 9.48899 38.2849 9.48899C41.3245 9.48899 58.1112 9.1784 59.631 9.04024C61.1508 8.90208 62.2561 8.41851 62.2213 8.28035C62.187 8.14219 56.7296 8.31517 53.7591 8.38425C51.8763 8.42791 47.2622 8.43012 44.0634 8.38148C44.216 8.26211 44.316 8.09466 44.3293 7.86586C44.3984 6.65722 43.5346 1.44132 38.7685 1.44132C34.0014 1.44132 29.3044 4.61905 29.3044 4.61905C29.3044 4.61905 27.784 0.888672 23.5706 0.888672C19.8812 0.888672 17.3042 3.88016 16.7195 7.54533C13.8302 7.57241 3.82116 7.70173 2.56333 7.76141C1.11042 7.83049 -8.85662 8.49146 -8.85662 8.49146C-8.85662 8.49146 -8.9351 8.83521 -8.72785 8.84073C-8.52061 8.84626 -1.73684 8.33727 4.41084 8.43288C9.43442 8.51136 14.7382 8.36656 16.6216 8.42735C16.6051 8.66444 16.5934 8.90318 16.5934 9.14359C16.5934 10.045 16.8455 10.9955 17.3207 11.9378C13.9098 12.0102 3.66421 12.2611 2.44064 12.3191C0.987729 12.3882 -10.9854 13.1337 -10.9854 13.1337C-10.9854 13.1337 -11.0639 13.4769 -10.8567 13.4824C-10.6494 13.488 -1.85897 12.895 4.2887 12.9906C9.66267 13.0746 16.1552 12.7662 17.8397 12.8292C20.0066 16.0981 24.8821 19.0222 31.5144 19.0222C38.8801 19.0222 42.6664 14.3821 42.9543 14.0152C43.7573 14.0262 44.5155 14.0279 45.1582 14.0141C48.3702 13.945 59.5962 13.4614 64.3286 13.2542C69.0603 13.0469 76.5211 12.045 76.452 11.6996C76.383 11.3542 71.9618 11.9416 68.3353 12.1489Z" fill="#C7942B"/>
</g>
</svg>
