<svg width="40" height="40" viewBox="0 0 40 40" fill="none" xmlns="http://www.w3.org/2000/svg">
<circle cx="20" cy="20" r="20" fill="black" fill-opacity="0.7"/>
<path d="M20 17.8654C20.909 17.8654 21.6863 18.1531 22.3318 18.7287C22.9773 19.3042 23.3 19.9972 23.3 20.8077C23.3 21.6182 22.9773 22.3112 22.3318 22.8867C21.6863 23.4622 20.909 23.75 20 23.75C19.091 23.75 18.3137 23.4622 17.6682 22.8867C17.0227 22.3112 16.7 21.6182 16.7 20.8077C16.7 19.9972 17.0227 19.3042 17.6682 18.7287C18.3137 18.1531 19.091 17.8654 20 17.8654ZM28.0667 13.6154C28.8764 13.6154 29.5677 13.8708 30.1406 14.3816C30.7135 14.8924 31 15.5088 31 16.2308V25.3846C31 26.1066 30.7135 26.723 30.1406 27.2338C29.5677 27.7446 28.8764 28 28.0667 28H11.9333C11.1236 28 10.4323 27.7446 9.85938 27.2338C9.28646 26.723 9 26.1066 9 25.3846V16.2308C9 15.5088 9.28646 14.8924 9.85938 14.3816C10.4323 13.8708 11.1236 13.6154 11.9333 13.6154H14.5L15.0844 12.226C15.2295 11.8922 15.495 11.6045 15.8807 11.3627C16.2665 11.1209 16.6618 11 17.0667 11H22.9333C23.3382 11 23.7335 11.1209 24.1193 11.3627C24.505 11.6045 24.7705 11.8922 24.9156 12.226L25.5 13.6154H28.0667ZM20 25.3846C21.4132 25.3846 22.622 24.9368 23.6266 24.0412C24.6311 23.1455 25.1333 22.0677 25.1333 20.8077C25.1333 19.5477 24.6311 18.4699 23.6266 17.5742C22.622 16.6786 21.4132 16.2308 20 16.2308C18.5868 16.2308 17.378 16.6786 16.3734 17.5742C15.3689 18.4699 14.8667 19.5477 14.8667 20.8077C14.8667 22.0677 15.3689 23.1455 16.3734 24.0412C17.378 24.9368 18.5868 25.3846 20 25.3846Z" fill="white"/>
</svg>
