<svg width="27" height="27" viewBox="0 0 27 27" fill="none" xmlns="http://www.w3.org/2000/svg">
<path d="M17.5231 13.3859C17.5231 12.1621 17.107 11.1172 16.2748 10.2513C15.4427 9.3854 14.4385 8.95244 13.2624 8.95244C12.0863 8.95244 11.0822 9.3854 10.25 10.2513C9.41785 11.1172 9.00177 12.1621 9.00177 13.3859C9.00177 14.6098 9.41785 15.6546 10.25 16.5206C11.0822 17.3865 12.0863 17.8194 13.2624 17.8194C14.4385 17.8194 15.4427 17.3865 16.2748 16.5206C17.107 15.6546 17.5231 14.6098 17.5231 13.3859ZM19.8198 13.3859C19.8198 15.2794 19.1818 16.89 17.9059 18.2178C16.6299 19.5455 15.0821 20.2094 13.2624 20.2094C11.4428 20.2094 9.89496 19.5455 8.61898 18.2178C7.343 16.89 6.70502 15.2794 6.70502 13.3859C6.70502 11.4925 7.343 9.88186 8.61898 8.55412C9.89496 7.22638 11.4428 6.56251 13.2624 6.56251C15.0821 6.56251 16.6299 7.22638 17.9059 8.55412C19.1818 9.88186 19.8198 11.4925 19.8198 13.3859ZM21.6173 6.28542C21.6173 6.72415 21.4675 7.09938 21.1679 7.41111C20.8684 7.72284 20.5078 7.87871 20.0861 7.87871C19.6645 7.87871 19.3039 7.72284 19.0043 7.41111C18.7047 7.09938 18.555 6.72415 18.555 6.28542C18.555 5.84669 18.7047 5.47146 19.0043 5.15973C19.3039 4.848 19.6645 4.69213 20.0861 4.69213C20.5078 4.69213 20.8684 4.848 21.1679 5.15973C21.4675 5.47146 21.6173 5.84669 21.6173 6.28542ZM13.2624 2.47538C13.1848 2.47538 12.7604 2.4725 11.9892 2.46672C11.2181 2.46095 10.6328 2.46095 10.2334 2.46672C9.83393 2.4725 9.29858 2.48981 8.6273 2.51868C7.95603 2.54754 7.38461 2.60527 6.91305 2.69186C6.4415 2.77845 6.04484 2.88525 5.72307 3.01225C5.1683 3.24316 4.6801 3.57798 4.25847 4.01671C3.83684 4.45545 3.51507 4.96345 3.29316 5.54073C3.17111 5.87555 3.06848 6.2883 2.98527 6.77899C2.90205 7.26968 2.84657 7.86427 2.81883 8.56278C2.7911 9.26129 2.77445 9.81836 2.7689 10.234C2.76336 10.6496 2.76336 11.2587 2.7689 12.0611C2.77445 12.8635 2.77723 13.3051 2.77723 13.3859C2.77723 13.4668 2.77445 13.9084 2.7689 14.7108C2.76336 15.5132 2.76336 16.1222 2.7689 16.5379C2.77445 16.9535 2.7911 17.5106 2.81883 18.2091C2.84657 18.9076 2.90205 19.5022 2.98527 19.9929C3.06848 20.4836 3.17111 20.8963 3.29316 21.2312C3.51507 21.8084 3.83684 22.3164 4.25847 22.7552C4.6801 23.1939 5.1683 23.5287 5.72307 23.7596C6.04484 23.8866 6.4415 23.9934 6.91305 24.08C7.38461 24.1666 7.95603 24.2243 8.6273 24.2532C9.29858 24.2821 9.83393 24.2994 10.2334 24.3052C10.6328 24.3109 11.2181 24.3109 11.9892 24.3052C12.7604 24.2994 13.1848 24.2965 13.2624 24.2965C13.3401 24.2965 13.7645 24.2994 14.5356 24.3052C15.3068 24.3109 15.892 24.3109 16.2915 24.3052C16.6909 24.2994 17.2263 24.2821 17.8975 24.2532C18.5688 24.2243 19.1402 24.1666 19.6118 24.08C20.0834 23.9934 20.48 23.8866 20.8018 23.7596C21.3566 23.5287 21.8448 23.1939 22.2664 22.7552C22.688 22.3164 23.0098 21.8084 23.2317 21.2312C23.3537 20.8963 23.4564 20.4836 23.5396 19.9929C23.6228 19.5022 23.6783 18.9076 23.706 18.2091C23.7338 17.5106 23.7504 16.9535 23.7559 16.5379C23.7615 16.1222 23.7615 15.5132 23.7559 14.7108C23.7504 13.9084 23.7476 13.4668 23.7476 13.3859C23.7476 13.3051 23.7504 12.8635 23.7559 12.0611C23.7615 11.2587 23.7615 10.6496 23.7559 10.234C23.7504 9.81836 23.7338 9.26129 23.706 8.56278C23.6783 7.86427 23.6228 7.26968 23.5396 6.77899C23.4564 6.2883 23.3537 5.87555 23.2317 5.54073C23.0098 4.96345 22.688 4.45545 22.2664 4.01671C21.8448 3.57798 21.3566 3.24316 20.8018 3.01225C20.48 2.88525 20.0834 2.77845 19.6118 2.69186C19.1402 2.60527 18.5688 2.54754 17.8975 2.51868C17.2263 2.48981 16.6909 2.4725 16.2915 2.46672C15.892 2.46095 15.3068 2.46095 14.5356 2.46672C13.7645 2.4725 13.3401 2.47538 13.2624 2.47538ZM26.0444 13.3859C26.0444 16.0299 26.0166 17.8598 25.9612 18.8759C25.8502 21.2773 25.1623 23.1362 23.8974 24.4524C22.6325 25.7686 20.8462 26.4844 18.5383 26.5998C17.5619 26.6576 15.8033 26.6864 13.2624 26.6864C10.7216 26.6864 8.96294 26.6576 7.98654 26.5998C5.67869 26.4844 3.89232 25.7686 2.62744 24.4524C1.36256 23.1362 0.674639 21.2773 0.563685 18.8759C0.508207 17.8598 0.480469 16.0299 0.480469 13.3859C0.480469 10.742 0.508207 8.91203 0.563685 7.89602C0.674639 5.49455 1.36256 3.63571 2.62744 2.31952C3.89232 1.00332 5.67869 0.287497 7.98654 0.172041C8.96294 0.114313 10.7216 0.0854492 13.2624 0.0854492C15.8033 0.0854492 17.5619 0.114313 18.5383 0.172041C20.8462 0.287497 22.6325 1.00332 23.8974 2.31952C25.1623 3.63571 25.8502 5.49455 25.9612 7.89602C26.0166 8.91203 26.0444 10.742 26.0444 13.3859Z" fill="white"/>
</svg>
