<svg width="27" height="24" viewBox="0 0 27 24" fill="none" xmlns="http://www.w3.org/2000/svg">
<path d="M26.2296 3.55133C25.4862 4.6828 24.5875 5.64686 23.5334 6.4435C23.5445 6.60514 23.5501 6.84759 23.5501 7.17087C23.5501 8.67179 23.3393 10.1698 22.9176 11.665C22.496 13.1601 21.8553 14.5947 20.9954 15.9686C20.1355 17.3425 19.1119 18.5577 17.9247 19.6141C16.7375 20.6705 15.3062 21.5134 13.6308 22.1426C11.9553 22.7718 10.1634 23.0864 8.25501 23.0864C5.24815 23.0864 2.49648 22.2494 0 20.5753C0.388341 20.6215 0.821063 20.6446 1.29817 20.6446C3.79464 20.6446 6.01928 19.8479 7.97208 18.2546C6.80706 18.2315 5.76408 17.8592 4.84316 17.1376C3.92224 16.416 3.2898 15.4952 2.94584 14.3753C3.31199 14.433 3.6504 14.4619 3.96107 14.4619C4.43818 14.4619 4.90974 14.3984 5.37574 14.2714C4.13305 14.0058 3.10395 13.3622 2.28844 12.3404C1.47292 11.3186 1.06516 10.1323 1.06516 8.78148V8.7122C1.81965 9.15094 2.62962 9.38762 3.49507 9.42226C2.76277 8.91425 2.18026 8.25038 1.74753 7.43065C1.31481 6.61091 1.09845 5.7219 1.09845 4.76362C1.09845 3.74761 1.34255 2.80665 1.83075 1.94073C3.1733 3.66102 4.8071 5.03783 6.73216 6.07116C8.65722 7.10448 10.7182 7.67888 12.9151 7.79433C12.8263 7.3556 12.782 6.92841 12.782 6.51277C12.782 4.96567 13.3062 3.64659 14.3547 2.55553C15.4033 1.46447 16.6709 0.918945 18.1577 0.918945C19.7111 0.918945 21.0203 1.50777 22.0855 2.68542C23.2949 2.44296 24.4322 1.99268 25.4973 1.33459C25.0868 2.66233 24.299 3.68988 23.134 4.41725C24.1659 4.3018 25.1978 4.01316 26.2296 3.55133Z" fill="white"/>
</svg>
