<svg width="26" height="27" viewBox="0 0 26 27" fill="none" xmlns="http://www.w3.org/2000/svg">
<path d="M15.4474 20.4345V17.7155C15.4474 17.1383 15.2865 16.8496 14.9648 16.8496C14.7761 16.8496 14.5931 16.942 14.4155 17.1267V21.006C14.5931 21.1907 14.7761 21.2831 14.9648 21.2831C15.2865 21.2831 15.4474 21.0002 15.4474 20.4345ZM18.5098 18.3217H19.6082V17.7328C19.6082 17.144 19.4251 16.8496 19.059 16.8496C18.6928 16.8496 18.5098 17.144 18.5098 17.7328V18.3217ZM9.00651 13.715V14.9273H7.67506V22.2529H6.44346V14.9273H5.14529V13.715H9.00651ZM12.3518 15.8971V22.2529H11.2367V21.5602C10.804 22.0798 10.3823 22.3395 9.97181 22.3395C9.60566 22.3395 9.37266 22.1779 9.2728 21.8546C9.20623 21.6583 9.17294 21.3466 9.17294 20.9194V15.8971H10.2714V20.5731C10.2714 20.8501 10.2769 21.0002 10.288 21.0233C10.2991 21.1965 10.3823 21.2831 10.5377 21.2831C10.7596 21.2831 10.9926 21.1042 11.2367 20.7462V15.8971H12.3518ZM16.5459 17.8194V20.3479C16.5459 20.9483 16.507 21.3697 16.4294 21.6122C16.2962 22.0971 16.0022 22.3395 15.5473 22.3395C15.1589 22.3395 14.7817 22.1028 14.4155 21.6295V22.2529H13.3004V13.715H14.4155V16.5032C14.7706 16.0414 15.1478 15.8105 15.5473 15.8105C16.0022 15.8105 16.2962 16.053 16.4294 16.5379C16.507 16.7803 16.5459 17.2075 16.5459 17.8194ZM20.7233 20.0535V20.2094C20.7233 20.5442 20.7122 20.7924 20.69 20.9541C20.6567 21.2081 20.5735 21.439 20.4404 21.6468C20.1408 22.1086 19.697 22.3395 19.1089 22.3395C18.5319 22.3395 18.0826 22.1202 17.7608 21.6814C17.5278 21.3697 17.4113 20.8732 17.4113 20.1921V17.958C17.4113 17.2768 17.5223 16.7803 17.7442 16.4686C18.0659 16.0299 18.5098 15.8105 19.0756 15.8105C19.6415 15.8105 20.0742 16.0299 20.3738 16.4686C20.6068 16.8034 20.7233 17.2999 20.7233 17.958V19.2742H18.5098V20.3999C18.5098 20.9887 18.6984 21.2831 19.0756 21.2831C19.3419 21.2831 19.5083 21.133 19.5749 20.8328C19.5749 20.8213 19.5777 20.7809 19.5832 20.7116C19.5888 20.6423 19.5916 20.5471 19.5916 20.4258V20.0535H20.7233ZM13.2172 5.78319V8.48485C13.2172 9.07367 13.0397 9.36808 12.6846 9.36808C12.3296 9.36808 12.1521 9.07367 12.1521 8.48485V5.78319C12.1521 5.18282 12.3296 4.88263 12.6846 4.88263C13.0397 4.88263 13.2172 5.18282 13.2172 5.78319ZM22.088 18.1312C22.088 16.0876 21.9826 14.5867 21.7718 13.6284C21.6609 13.1204 21.4223 12.6961 21.0562 12.3555C20.69 12.0149 20.2684 11.8157 19.7913 11.758C18.2823 11.5848 15.9966 11.4982 12.9343 11.4982C9.88305 11.4982 7.60293 11.5848 6.09395 11.758C5.60575 11.8157 5.18135 12.0149 4.82075 12.3555C4.46015 12.6961 4.22437 13.1204 4.11342 13.6284C3.89151 14.6329 3.78055 16.1338 3.78055 18.1312C3.78055 20.1632 3.89151 21.6641 4.11342 22.6339C4.22437 23.1304 4.46015 23.5518 4.82075 23.8982C5.18135 24.2445 5.60021 24.4466 6.07731 24.5043C7.59739 24.6775 9.88305 24.7641 12.9343 24.7641C15.9855 24.7641 18.2712 24.6775 19.7913 24.5043C20.2684 24.4466 20.6872 24.2445 21.0478 23.8982C21.4084 23.5518 21.6442 23.1304 21.7552 22.6339C21.9771 21.6641 22.088 20.1632 22.088 18.1312ZM9.52245 6.85692L11.0203 1.73069H9.77209L8.92329 5.10777L8.0412 1.73069H6.74304C6.82071 1.99624 6.9483 2.39456 7.12583 2.92566L7.52527 4.12062C7.91361 5.30982 8.1688 6.22192 8.29085 6.85692V10.3379H9.52245V6.85692ZM14.3323 8.25971V6.00832C14.3323 5.33868 14.2158 4.83645 13.9828 4.50163C13.661 4.0629 13.2283 3.84353 12.6846 3.84353C12.1188 3.84353 11.6861 4.0629 11.3865 4.50163C11.1535 4.83645 11.037 5.33868 11.037 6.00832V8.25971C11.037 8.92935 11.1535 9.43159 11.3865 9.76641C11.6861 10.2051 12.1188 10.4245 12.6846 10.4245C13.2283 10.4245 13.661 10.2051 13.9828 9.76641C14.2158 9.45468 14.3323 8.95244 14.3323 8.25971ZM17.3447 10.3379H18.4598V3.93012H17.3447V8.83122C17.1006 9.18913 16.8676 9.36808 16.6457 9.36808C16.4793 9.36808 16.3905 9.27572 16.3794 9.09099C16.3683 9.0679 16.3628 8.91781 16.3628 8.64071V3.93012H15.2477V9.0044C15.2477 9.43159 15.281 9.74909 15.3476 9.95691C15.4696 10.2686 15.7082 10.4245 16.0632 10.4245C16.4626 10.4245 16.8898 10.1647 17.3447 9.64518V10.3379ZM25.7162 5.07313V21.6987C25.7162 23.0727 25.2475 24.2474 24.3099 25.223C23.3723 26.1986 22.2434 26.6864 20.923 26.6864H4.94558C3.62522 26.6864 2.49626 26.1986 1.55869 25.223C0.621126 24.2474 0.152344 23.0727 0.152344 21.6987V5.07313C0.152344 3.69921 0.621126 2.52445 1.55869 1.54885C2.49626 0.573249 3.62522 0.0854492 4.94558 0.0854492H20.923C22.2434 0.0854492 23.3723 0.573249 24.3099 1.54885C25.2475 2.52445 25.7162 3.69921 25.7162 5.07313Z" fill="white"/>
</svg>
