<svg width="134" height="16" viewBox="0 0 134 16" fill="none" xmlns="http://www.w3.org/2000/svg">
<path fill-rule="evenodd" clip-rule="evenodd" d="M43.8805 8.03687C44.6023 8.07381 45.3349 8.10191 46.0677 8.11837C46.8225 8.13523 47.5779 8.10231 48.3333 8.09428C50.6603 8.06939 52.9876 8.0449 55.3149 8.02282C57.2837 8.00435 59.253 7.94614 61.2212 7.98268C64.7419 8.04731 68.2624 8.15972 71.7826 8.27212C73.9989 8.34278 76.2146 8.45599 78.4309 8.53909C80.7711 8.627 83.1112 8.71612 85.4519 8.77714C86.9779 8.81689 88.5047 8.82452 90.0312 8.81368C90.68 8.80926 91.3296 8.74182 91.9768 8.66514C92.4831 8.60532 92.6012 8.48248 92.6191 7.76389C92.6385 6.98467 92.8758 5.28092 93.2863 4.33953C93.9994 2.70362 95.5175 1.46435 95.575 1.47117C95.7469 1.49165 95.7991 1.66025 95.7881 2.06331C95.7519 3.35517 95.5259 4.52419 95.0908 5.53344C94.4186 7.09266 93.633 7.60291 93.3259 8.28095C93.8196 7.95297 94.8466 7.59849 95.5795 7.59849C96.8304 7.59849 98.0826 8.61978 98.5908 9.05374C98.7637 9.07181 98.7952 9.43833 98.643 9.5672C98.1112 10.0184 97.0884 10.4086 95.9005 10.2657C94.4661 10.0931 93.7556 9.2633 93.238 8.94134C93.1564 8.89075 93.1236 8.65751 93.0427 8.44033C92.7713 8.94776 92.4551 9.04652 92.0805 9.04531C90.2144 9.03889 88.348 9.10673 86.4818 9.08747C84.5989 9.0682 82.7159 8.98951 80.8335 8.91524C78.7201 8.83214 76.6076 8.7081 74.4942 8.63383C72.8469 8.57562 71.1986 8.57642 69.5509 8.53146C68.6367 8.50657 67.723 8.42267 66.8086 8.39818C65.3656 8.35924 63.922 8.33836 62.4784 8.32712C60.9081 8.31468 59.3375 8.30905 57.7669 8.32511C56.1115 8.34197 54.4564 8.39456 52.801 8.41825C51.711 8.4335 50.6209 8.41624 49.5312 8.42788C47.6677 8.44755 45.8039 8.45438 43.9406 8.50295C43.617 8.51138 43.402 8.01238 43.8805 8.03687ZM43.0705 10.0521C43.5078 10.0698 43.9414 10.1063 44.3745 10.1023C46.4894 10.0819 48.6044 10.0501 50.7191 10.0232C50.9711 10.02 51.2228 10.0228 51.4747 10.02C54.0753 9.99113 56.6758 9.9554 59.2763 9.93492C60.0726 9.9285 60.8698 10.0004 61.6653 9.96905C63.5291 9.89558 65.3921 9.77876 67.2553 9.68522C67.5485 9.67077 67.8425 9.69446 68.1359 9.68322C69.5585 9.62862 70.981 9.56479 72.4036 9.513C72.6753 9.50296 72.9312 9.47607 73.2582 9.54472C73.7955 9.65792 74.0062 10.5837 73.5519 10.7334C73.0973 10.8831 72.2795 10.7876 71.638 10.7864C69.9196 10.7832 68.201 10.8069 66.4824 10.8049C65.6257 10.8041 64.769 10.7483 63.9125 10.7559C62.2768 10.7703 60.6414 10.8 59.006 10.8466C57.0776 10.9012 51.0713 10.5507 50.5112 10.5993C48.2262 10.798 45.9425 10.7788 43.658 10.613C43.5133 10.6025 43.3677 10.621 43.1577 10.6286C43.538 11.9614 43.2131 13.1558 42.9307 13.8374C42.6997 14.3954 41.9349 15.3794 41.7041 15.2678C41.4734 15.1562 41.1942 12.6861 41.9349 11.3484C41.4128 11.7202 40.7052 11.8952 40.0768 11.7944C39.459 11.6953 38.1947 11.1072 38.1947 10.8101C38.1947 10.5499 39.3057 9.82934 39.8341 9.71413C40.5141 9.56559 41.2377 9.64989 41.8955 9.91284C41.8955 9.91284 41.0921 9.22115 40.7624 8.15691C40.516 7.18781 40.4194 5.32187 40.559 5.25644C40.8824 5.10589 42.1475 6.28495 42.7677 7.7952C43.0845 8.56598 43.0388 9.49052 43.0705 10.0521ZM39.5023 8.53065C37.0304 8.66715 34.5548 8.64025 32.0808 8.70368C29.8385 8.76109 12.5367 8.87871 10.2942 8.92367C8.55376 8.9586 6.81255 8.92367 5.07187 8.91605C4.94694 8.91564 4.81833 8.91123 4.69759 8.86747C4.46662 8.78357 4.24904 8.66594 4.27555 8.18742C4.30389 7.66915 4.54037 7.69805 4.77896 7.71411C5.68027 7.77593 6.58132 7.85502 7.48316 7.89155C8.48814 7.93209 9.49392 7.93852 10.4992 7.94976C11.6711 7.9626 27.9031 7.98509 29.0748 7.96662C30.6036 7.94253 32.1322 7.88191 33.6611 7.83816C35.3173 7.79119 36.9734 7.74542 38.6299 7.70086C38.7136 7.69845 39.1965 7.76228 39.2779 7.74301C39.6747 7.70086 40.0238 8.55273 39.5023 8.53065ZM91.1982 5.25367C91.3152 5.4568 91.1795 5.74183 90.9475 5.72657C89.9635 5.66355 88.9788 5.5957 87.9942 5.58366C87.032 5.57201 86.0698 5.63304 85.1074 5.64909C83.5142 5.67559 81.9208 5.67719 80.3278 5.71573C78.7355 5.75427 77.1436 5.83978 75.5512 5.87671C74.462 5.90201 73.3722 5.8723 72.2827 5.88113C70.2515 5.89759 68.22 5.9269 66.1885 5.94496C65.4961 5.95098 64.8034 5.92569 64.1113 5.93934C62.5423 5.96945 58.3969 5.99193 57.8948 6.02204C56.3483 6.11437 54.8026 6.24163 53.2565 6.34561C52.4649 6.3986 51.6727 6.45159 50.8806 6.46082C50.6347 6.46363 50.3803 6.35805 50.1431 6.24003C49.5536 5.94697 49.163 4.74784 49.6415 4.47485C50.12 4.20187 53.0942 4.69124 54.8208 4.78317C56.0126 4.84619 57.2013 5.02203 58.3935 5.02444C59.9026 5.02765 61.4118 4.96743 62.921 4.9586C65.4788 4.94415 68.0368 4.93933 70.5945 4.94736C72.6898 4.95459 74.7851 4.98148 76.8801 5.00878C79.353 5.0409 81.8255 5.08827 84.2984 5.11958C86.3102 5.14527 88.3221 5.16053 90.3339 5.17097C90.6809 5.17297 91.0811 5.05053 91.1982 5.25367ZM92.8516 9.2529C93.3857 9.43235 94.1482 10.0759 94.5579 10.7969C95.24 11.9968 95.3587 14.3236 95.229 14.4336C95.0991 14.5436 94.0479 13.8643 93.5718 13.2136C93.0959 12.5624 92.6277 11.5713 92.6209 10.3489C92.619 10.0225 92.686 9.6953 92.7348 9.33681C92.74 9.29947 92.8164 9.24126 92.8516 9.2529ZM130.893 0.419013C130.981 0.539046 130.991 2.76267 130.37 3.83013C129.545 5.24804 128.521 5.51661 128.443 5.4849C128.328 5.43713 128.15 4.06497 128.855 2.53826C129.56 1.01195 130.788 0.275294 130.893 0.419013ZM130.745 10.6546C130.652 10.7814 129.569 10.1315 128.947 8.78541C128.326 7.43895 128.483 6.22858 128.584 6.18683C128.652 6.15873 129.555 6.39559 130.283 7.6461C130.831 8.5875 130.822 10.5486 130.745 10.6546ZM131.151 6.99881C130.386 6.99881 129.427 6.25131 129.424 5.99839C129.422 5.78844 130.324 4.63146 131.197 4.63146C132.492 4.63146 133.17 5.75271 133.133 5.92533C133.071 6.21799 132.278 6.99881 131.151 6.99881ZM96.501 5.07731C96.5406 4.98377 96.9309 4.97374 97.1404 5.00585C99.7254 5.40449 123.041 5.46832 125.636 5.39445C126.263 5.37679 126.891 5.44142 127.518 5.43901C127.756 5.43821 128.051 5.33584 128.165 5.53617C128.278 5.73689 128.025 5.91674 127.797 5.90991C127.252 5.89386 126.709 5.85813 126.164 5.8513C124.783 5.83364 102.678 5.86013 101.297 5.80795C99.8978 5.75496 98.4991 5.63211 97.1005 5.53054C96.9036 5.51649 96.6028 5.5193 96.5283 5.46671C96.454 5.41412 96.4613 5.17085 96.501 5.07731ZM46.5759 4.50075C46.777 4.41042 47.01 4.70629 46.9741 5.15391C46.9612 5.31408 46.8809 5.56258 46.7323 5.5678C46.584 5.57342 46.4247 5.31649 46.4027 5.13945C46.3722 4.89457 46.3749 4.59107 46.5759 4.50075ZM48.1954 4.55105C48.3088 4.68072 48.3886 5.0087 48.2944 5.26603C48.1999 5.52336 47.9786 5.67832 47.7797 5.5342C47.5245 5.34913 47.6001 4.98381 47.6592 4.70681C47.7623 4.22427 48.082 4.42138 48.1954 4.55105ZM1.69271 7.74028C1.89376 7.64996 2.12683 7.94582 2.09087 8.39344C2.07801 8.55362 1.9977 8.80211 1.84914 8.80733C1.70085 8.81295 1.54153 8.55603 1.51948 8.37899C1.48904 8.1341 1.49166 7.83061 1.69271 7.74028ZM3.31221 7.79054C3.4256 7.92021 3.50539 8.2482 3.41116 8.50552C3.31667 8.76285 3.09541 8.91781 2.89646 8.77369C2.64135 8.58862 2.71694 8.22331 2.77599 7.94631C2.87914 7.46376 3.19883 7.66088 3.31221 7.79054ZM0.594417 7.79054C0.707803 7.92021 0.787593 8.2482 0.693367 8.50552C0.598879 8.76285 0.377619 8.91781 0.178669 8.77369C-0.076449 8.58862 -0.000858438 8.22331 0.0581967 7.94631C0.161346 7.46376 0.481031 7.66088 0.594417 7.79054ZM76.3847 10.7539C76.1836 10.8442 75.9506 10.5483 75.9865 10.1007C75.9994 9.94054 76.0797 9.69205 76.2283 9.68683C76.3766 9.68121 76.5359 9.93814 76.5579 10.1152C76.5884 10.3601 76.5857 10.6636 76.3847 10.7539ZM74.6662 9.98864C74.7607 9.73131 74.982 9.57635 75.1809 9.72047C75.4361 9.90554 75.3605 10.2709 75.3014 10.5479C75.1983 11.0304 74.8786 10.8333 74.7652 10.7036C74.6518 10.574 74.572 10.246 74.6662 9.98864Z" fill="#C7942B"/>
</svg>
