<svg width="23" height="14" viewBox="0 0 23 14" fill="none" xmlns="http://www.w3.org/2000/svg">
<path d="M0 1C0 0.447715 0.447715 0 1 0H22C22.5523 0 23 0.447715 23 1C23 1.55228 22.5523 2 22 2H1C0.447715 2 0 1.55228 0 1Z" fill="#676055"/>
<path d="M0 7C0 6.44772 0.447715 6 1 6H22C22.5523 6 23 6.44772 23 7C23 7.55228 22.5523 8 22 8H1C0.447715 8 0 7.55228 0 7Z" fill="#676055"/>
<path d="M0 13C0 12.4477 0.447715 12 1 12H22C22.5523 12 23 12.4477 23 13C23 13.5523 22.5523 14 22 14H1C0.447715 14 0 13.5523 0 13Z" fill="#676055"/>
</svg>
