<svg width="24" height="24" viewBox="0 0 24 24" fill="none" xmlns="http://www.w3.org/2000/svg">
<g clip-path="url(#clip0_11046_8769)">
<path fill-rule="evenodd" clip-rule="evenodd" d="M20.6629 24C20.1143 24 19.5657 23.76 19.1314 23.304L15.7257 19.752C14.8343 18.84 14.8571 17.376 15.7257 16.464C16.6171 15.528 17.9657 15.528 18.8571 16.464L22.2629 20.04C23.1314 20.952 23.1543 22.416 22.2629 23.304C21.7829 23.784 21.2114 24 20.6629 24ZM8.93714 2.88C7.29143 2.88 5.69143 3.576 4.54857 4.776C3.40572 5.976 2.74286 7.656 2.74286 9.384C2.74286 11.112 3.40572 12.768 4.54857 13.992C5.69143 15.192 7.29143 15.888 8.93714 15.888C10.5829 15.888 12.16 15.216 13.3257 13.992C13.9005 13.3864 14.3559 12.6676 14.6658 11.8769C14.9756 11.0862 15.1339 10.239 15.1314 9.384C15.1314 7.656 14.4686 5.976 13.3257 4.776C12.1143 3.504 10.5829 2.88 8.93714 2.88ZM8.93714 18.696C6.51429 18.696 4.32 17.736 2.62857 15.936C1.79517 15.0691 1.13374 14.0374 0.682549 12.9004C0.231361 11.7634 -0.000628348 10.5437 1.27818e-06 9.312C1.27818e-06 6.84 0.937144 4.488 2.58286 2.712C4.22857 0.912 6.51429 0 8.93714 0C11.3371 0 13.5314 0.984 15.2457 2.76C16.0774 3.62821 16.7377 4.66024 17.1888 5.79692C17.6398 6.93361 17.8728 8.15259 17.8743 9.384C17.8743 11.856 16.96 14.208 15.2457 16.008C13.5314 17.808 11.2914 18.696 8.93714 18.696Z" fill="#676055"/>
</g>
<defs>
<clipPath id="clip0_11046_8769">
<rect width="24" height="24" fill="white"/>
</clipPath>
</defs>
</svg>
