<svg width="40" height="40" viewBox="0 0 40 40" fill="none" xmlns="http://www.w3.org/2000/svg">
<circle cx="20" cy="20" r="20" fill="black" fill-opacity="0.7"/>
<path d="M16.9091 25.25V16.0833C16.9091 15.9618 16.8686 15.862 16.7876 15.7839C16.7067 15.7057 16.6032 15.6667 16.4773 15.6667H15.6136C15.4877 15.6667 15.3842 15.7057 15.3033 15.7839C15.2223 15.862 15.1818 15.9618 15.1818 16.0833V25.25C15.1818 25.3715 15.2223 25.4714 15.3033 25.5495C15.3842 25.6276 15.4877 25.6667 15.6136 25.6667H16.4773C16.6032 25.6667 16.7067 25.6276 16.7876 25.5495C16.8686 25.4714 16.9091 25.3715 16.9091 25.25ZM20.3636 25.25V16.0833C20.3636 15.9618 20.3232 15.862 20.2422 15.7839C20.1612 15.7057 20.0578 15.6667 19.9318 15.6667H19.0682C18.9422 15.6667 18.8388 15.7057 18.7578 15.7839C18.6768 15.862 18.6364 15.9618 18.6364 16.0833V25.25C18.6364 25.3715 18.6768 25.4714 18.7578 25.5495C18.8388 25.6276 18.9422 25.6667 19.0682 25.6667H19.9318C20.0578 25.6667 20.1612 25.6276 20.2422 25.5495C20.3232 25.4714 20.3636 25.3715 20.3636 25.25ZM23.8182 25.25V16.0833C23.8182 15.9618 23.7777 15.862 23.6967 15.7839C23.6158 15.7057 23.5123 15.6667 23.3864 15.6667H22.5227C22.3968 15.6667 22.2933 15.7057 22.2124 15.7839C22.1314 15.862 22.0909 15.9618 22.0909 16.0833V25.25C22.0909 25.3715 22.1314 25.4714 22.2124 25.5495C22.2933 25.6276 22.3968 25.6667 22.5227 25.6667H23.3864C23.5123 25.6667 23.6158 25.6276 23.6967 25.5495C23.7777 25.4714 23.8182 25.3715 23.8182 25.25ZM16.4773 12.3333H22.5227L21.875 10.8099C21.812 10.7318 21.7356 10.684 21.6456 10.6667H17.3679C17.2779 10.684 17.2015 10.7318 17.1385 10.8099L16.4773 12.3333ZM29 12.75V13.5833C29 13.7049 28.9595 13.8047 28.8786 13.8828C28.7976 13.9609 28.6941 14 28.5682 14H27.2727V26.3438C27.2727 27.0642 27.0613 27.6871 26.6385 28.2122C26.2157 28.7374 25.7074 29 25.1136 29H13.8864C13.2926 29 12.7843 28.7461 12.3615 28.2383C11.9387 27.7305 11.7273 27.1163 11.7273 26.3958V14H10.4318C10.3059 14 10.2024 13.9609 10.1214 13.8828C10.0405 13.8047 10 13.7049 10 13.5833V12.75C10 12.6285 10.0405 12.5286 10.1214 12.4505C10.2024 12.3724 10.3059 12.3333 10.4318 12.3333H14.6016L15.5462 10.1589C15.6811 9.83767 15.924 9.56424 16.2749 9.33854C16.6257 9.11285 16.9811 9 17.3409 9H21.6591C22.0189 9 22.3743 9.11285 22.7251 9.33854C23.076 9.56424 23.3189 9.83767 23.4538 10.1589L24.3984 12.3333H28.5682C28.6941 12.3333 28.7976 12.3724 28.8786 12.4505C28.9595 12.5286 29 12.6285 29 12.75Z" fill="white"/>
</svg>
