<svg width="48" height="49" viewBox="0 0 48 49" fill="none" xmlns="http://www.w3.org/2000/svg">
<path d="M22.041 32.5C22.041 33.0667 22.229 33.5413 22.605 33.924C22.9797 34.308 23.4445 34.5 23.9993 34.5C24.5542 34.5 25.0196 34.3167 25.3956 33.95C25.7703 33.5833 25.9577 33.1167 25.9577 32.55V26.5H29.4827C29.9396 26.5 30.2412 26.292 30.3874 25.876C30.535 25.4587 30.4618 25.1 30.1681 24.8L24.6848 19.2C24.4889 19 24.2605 18.9 23.9993 18.9C23.7382 18.9 23.5098 19 23.3139 19.2L17.8306 24.8C17.5368 25.1 17.4637 25.4587 17.6113 25.876C17.7575 26.292 18.0591 26.5 18.516 26.5H22.041V32.5ZM8.33268 40.5C7.2556 40.5 6.33388 40.1087 5.56752 39.326C4.79985 38.542 4.41602 37.6 4.41602 36.5V12.5C4.41602 11.4 4.79985 10.4587 5.56752 9.676C6.33388 8.892 7.2556 8.5 8.33268 8.5H18.4671C18.9893 8.5 19.4873 8.6 19.9613 8.8C20.4339 9 20.8497 9.28333 21.2087 9.65L23.9993 12.5H39.666C40.7431 12.5 41.6655 12.892 42.4331 13.676C43.1995 14.4587 43.5827 15.4 43.5827 16.5V36.5C43.5827 37.6 43.1995 38.542 42.4331 39.326C41.6655 40.1087 40.7431 40.5 39.666 40.5H8.33268Z" fill="black"/>
</svg>
